<svg width="20" height="20" viewBox="0 0 20 20" fill="none" xmlns="http://www.w3.org/2000/svg">
<g id="carbon:managed-solutions">
<path id="Vector" d="M18.75 14.375H15.625V11.25H14.375V14.375H11.25V15.625H14.375V18.75H15.625V15.625H18.75V14.375Z" fill="black"/>
<path id="Vector_2" d="M15.0795 7.40018L15.8176 7.5333C16.4156 7.63077 16.9797 7.8766 17.4582 8.2483C17.9039 8.60231 18.2532 9.06292 18.4739 9.58758C18.6945 10.1122 18.7794 10.684 18.7207 11.2502H19.9895C20.067 10.0998 19.7179 8.96119 19.0088 8.05204C18.2997 7.14289 17.2804 6.52698 16.1457 6.32205C15.9087 5.09433 15.3093 3.9658 14.4248 3.08203C13.5402 2.19827 12.4112 1.59983 11.1832 1.36393C10.3767 1.20815 9.54734 1.21285 8.7426 1.37776C7.93787 1.54267 7.17352 1.86456 6.49325 2.32502C5.81298 2.78548 5.23012 3.37548 4.77799 4.06132C4.32586 4.74715 4.01332 5.51537 3.85823 6.32205C2.67997 6.5353 1.62784 7.19103 0.9174 8.1549C0.206956 9.11878 -0.108025 10.3178 0.036983 11.5064C0.203012 12.6615 0.783939 13.7166 1.67121 14.4746C2.55848 15.2326 3.69139 15.6416 4.85823 15.6252H8.75011V14.3752H4.81136C3.99261 14.3883 3.19491 14.1155 2.5557 13.6037C1.91648 13.0919 1.47577 12.3732 1.30948 11.5714C1.22613 11.1255 1.23178 10.6674 1.32612 10.2236C1.42046 9.77985 1.60162 9.35911 1.85917 8.98561C2.11673 8.61211 2.4456 8.29322 2.82687 8.04731C3.20813 7.80139 3.63426 7.63329 4.08073 7.55268L4.92386 7.39955L5.05761 6.7058C5.24572 5.66361 5.7517 4.70514 6.50613 3.96191C7.26055 3.21867 8.22647 2.72707 9.27136 2.55455C9.89874 2.46192 10.538 2.4895 11.1551 2.6358C12.1069 2.87138 12.9703 3.37695 13.6414 4.09169C14.3126 4.80643 14.7629 5.69989 14.9382 6.66455L15.0795 7.40018Z" fill="black"/>
</g>
</svg>
